<svg width="256" height="256" viewBox="0 0 256 256" fill="none" xmlns="http://www.w3.org/2000/svg">
<path d="M238 128C238 67.2708 188.729 18 128 18C67.2708 18 18 67.2708 18 128C18 188.729 67.2708 238 128 238C188.729 238 238 188.729 238 128Z" stroke="#9ACA75" stroke-width="30" stroke-miterlimit="10"/>
<mask id="path-2-outside-1" maskUnits="userSpaceOnUse" x="62" y="62" width="133" height="132" fill="black">
<rect fill="white" x="62" y="62" width="133" height="132"/>
<path d="M189.673 115.2L166.4 132.654C166.307 132.724 166.197 132.747 166.104 132.811C166.028 132.858 165.987 132.939 165.906 132.992C165.65 133.143 165.376 133.219 165.109 133.329C164.928 133.405 164.766 133.498 164.585 133.556C164.038 133.719 163.474 133.818 162.915 133.818C162.095 133.818 161.298 133.609 160.547 133.271C160.454 133.231 160.367 133.207 160.274 133.161C159.57 132.806 158.959 132.282 158.435 131.642C158.389 131.578 158.307 131.561 158.261 131.491C158.214 131.433 158.208 131.363 158.168 131.305C158.092 131.194 157.993 131.113 157.923 130.996L145.17 109.743L132.876 124.777L155.823 153.46C155.928 153.589 155.951 153.751 156.038 153.885C156.265 154.217 156.428 154.56 156.579 154.927C156.719 155.276 156.841 155.602 156.917 155.962C156.987 156.317 156.999 156.672 157.004 157.044C157.004 157.44 156.987 157.818 156.911 158.208C156.876 158.371 156.917 158.528 156.87 158.691L145.234 187.782C144.501 190.336 142.173 192 139.643 192C139.113 192 138.578 191.93 138.043 191.773C134.953 190.889 133.161 187.671 134.04 184.582L144.635 158.103L125.336 133.987L103.419 160.774C103.361 160.849 103.268 160.873 103.204 160.943C102.796 161.396 102.307 161.74 101.778 162.048C101.598 162.153 101.458 162.31 101.272 162.391C100.544 162.711 99.7532 162.909 98.9095 162.909H69.8182C66.6065 162.909 64 160.302 64 157.091C64 153.879 66.6065 151.273 69.8182 151.273H96.1515L135.523 103.15L113.083 99.4092L97.7458 119.854C96.6055 121.379 94.86 122.182 93.0856 122.182C91.8697 122.182 90.6478 121.804 89.6063 121.018C87.0288 119.092 86.5111 115.444 88.4427 112.873L105.897 89.5998C106.054 89.3904 106.275 89.2799 106.456 89.0995C106.764 88.7853 107.061 88.4711 107.433 88.2324C107.73 88.0404 108.044 87.9358 108.37 87.8018C108.731 87.6563 109.08 87.4935 109.475 87.4236C109.877 87.3421 110.273 87.3714 110.68 87.383C110.959 87.3887 111.221 87.3074 111.5 87.354L144.018 92.7708L146.77 89.408C146.91 89.2393 147.102 89.1637 147.253 89.0182C146.136 86.7199 145.455 84.1776 145.455 81.4546C145.455 71.8313 153.287 64 162.91 64C172.539 64 180.364 71.8313 180.364 81.4546C180.364 91.0779 172.539 98.9092 162.91 98.9092C160.233 98.9092 157.726 98.2575 155.457 97.1754L153.001 100.172L164.585 119.477L182.697 105.891C185.257 103.959 188.911 104.489 190.837 107.055C192.768 109.626 192.245 113.274 189.673 115.2Z"/>
</mask>
<path d="M189.673 115.2L166.4 132.654C166.307 132.724 166.197 132.747 166.104 132.811C166.028 132.858 165.987 132.939 165.906 132.992C165.65 133.143 165.376 133.219 165.109 133.329C164.928 133.405 164.766 133.498 164.585 133.556C164.038 133.719 163.474 133.818 162.915 133.818C162.095 133.818 161.298 133.609 160.547 133.271C160.454 133.231 160.367 133.207 160.274 133.161C159.57 132.806 158.959 132.282 158.435 131.642C158.389 131.578 158.307 131.561 158.261 131.491C158.214 131.433 158.208 131.363 158.168 131.305C158.092 131.194 157.993 131.113 157.923 130.996L145.17 109.743L132.876 124.777L155.823 153.46C155.928 153.589 155.951 153.751 156.038 153.885C156.265 154.217 156.428 154.56 156.579 154.927C156.719 155.276 156.841 155.602 156.917 155.962C156.987 156.317 156.999 156.672 157.004 157.044C157.004 157.44 156.987 157.818 156.911 158.208C156.876 158.371 156.917 158.528 156.87 158.691L145.234 187.782C144.501 190.336 142.173 192 139.643 192C139.113 192 138.578 191.93 138.043 191.773C134.953 190.889 133.161 187.671 134.04 184.582L144.635 158.103L125.336 133.987L103.419 160.774C103.361 160.849 103.268 160.873 103.204 160.943C102.796 161.396 102.307 161.74 101.778 162.048C101.598 162.153 101.458 162.31 101.272 162.391C100.544 162.711 99.7532 162.909 98.9095 162.909H69.8182C66.6065 162.909 64 160.302 64 157.091C64 153.879 66.6065 151.273 69.8182 151.273H96.1515L135.523 103.15L113.083 99.4092L97.7458 119.854C96.6055 121.379 94.86 122.182 93.0856 122.182C91.8697 122.182 90.6478 121.804 89.6063 121.018C87.0288 119.092 86.5111 115.444 88.4427 112.873L105.897 89.5998C106.054 89.3904 106.275 89.2799 106.456 89.0995C106.764 88.7853 107.061 88.4711 107.433 88.2324C107.73 88.0404 108.044 87.9358 108.37 87.8018C108.731 87.6563 109.08 87.4935 109.475 87.4236C109.877 87.3421 110.273 87.3714 110.68 87.383C110.959 87.3887 111.221 87.3074 111.5 87.354L144.018 92.7708L146.77 89.408C146.91 89.2393 147.102 89.1637 147.253 89.0182C146.136 86.7199 145.455 84.1776 145.455 81.4546C145.455 71.8313 153.287 64 162.91 64C172.539 64 180.364 71.8313 180.364 81.4546C180.364 91.0779 172.539 98.9092 162.91 98.9092C160.233 98.9092 157.726 98.2575 155.457 97.1754L153.001 100.172L164.585 119.477L182.697 105.891C185.257 103.959 188.911 104.489 190.837 107.055C192.768 109.626 192.245 113.274 189.673 115.2Z" fill="#9ACA75"/>
<path d="M189.673 115.2L188.474 113.599L188.473 113.6L189.673 115.2ZM166.4 132.654L167.6 134.254L167.6 134.254L166.4 132.654ZM166.104 132.811L167.153 134.514L167.196 134.487L167.237 134.459L166.104 132.811ZM165.906 132.992L166.923 134.714L166.956 134.694L166.988 134.674L165.906 132.992ZM165.109 133.329L164.345 131.481L164.336 131.484L165.109 133.329ZM164.585 133.556L165.156 135.473L165.178 135.466L165.2 135.459L164.585 133.556ZM160.547 133.271L161.368 131.447L161.357 131.442L161.347 131.438L160.547 133.271ZM160.274 133.161L159.374 134.947L159.379 134.95L160.274 133.161ZM158.435 131.642L156.819 132.82L156.852 132.866L156.887 132.909L158.435 131.642ZM158.261 131.491L159.928 130.386L159.878 130.311L159.822 130.241L158.261 131.491ZM158.168 131.305L156.517 132.434L156.525 132.446L156.534 132.458L158.168 131.305ZM157.923 130.996L156.208 132.026L156.209 132.027L157.923 130.996ZM145.17 109.743L146.885 108.714L145.422 106.275L143.622 108.477L145.17 109.743ZM132.876 124.777L131.328 123.511L130.304 124.763L131.314 126.026L132.876 124.777ZM155.823 153.46L154.261 154.71L154.268 154.718L154.275 154.727L155.823 153.46ZM156.038 153.885L154.363 154.977L154.375 154.996L154.388 155.015L156.038 153.885ZM156.579 154.927L158.436 154.183L158.432 154.173L158.428 154.163L156.579 154.927ZM156.917 155.962L158.879 155.576L158.877 155.564L158.874 155.552L156.917 155.962ZM157.004 157.044H159.004V157.029L159.004 157.014L157.004 157.044ZM156.911 158.208L158.866 158.628L158.871 158.609L158.874 158.59L156.911 158.208ZM156.87 158.691L158.727 159.434L158.765 159.339L158.793 159.24L156.87 158.691ZM145.234 187.782L143.377 187.039L143.34 187.133L143.312 187.23L145.234 187.782ZM138.043 191.773L138.606 189.854L138.593 189.85L138.043 191.773ZM134.04 184.582L132.183 183.839L132.145 183.935L132.116 184.035L134.04 184.582ZM144.635 158.103L146.492 158.846L146.925 157.764L146.196 156.854L144.635 158.103ZM125.336 133.987L126.898 132.737L125.353 130.807L123.788 132.72L125.336 133.987ZM103.419 160.774L101.871 159.507L101.852 159.53L101.835 159.553L103.419 160.774ZM103.204 160.943L101.731 159.589L101.723 159.598L101.715 159.606L103.204 160.943ZM101.778 162.048L102.783 163.777L102.784 163.776L101.778 162.048ZM101.272 162.391L100.472 160.558L100.466 160.56L101.272 162.391ZM96.1515 151.273V153.273H97.0993L97.6994 152.539L96.1515 151.273ZM135.523 103.15L137.071 104.417L139.257 101.745L135.852 101.178L135.523 103.15ZM113.083 99.4092L113.411 97.4364L112.212 97.2365L111.483 98.209L113.083 99.4092ZM97.7458 119.854L96.1459 118.654L96.1443 118.656L97.7458 119.854ZM89.6063 121.018L90.8106 119.421L90.8034 119.416L89.6063 121.018ZM88.4427 112.873L90.0418 114.074L90.0427 114.073L88.4427 112.873ZM105.897 89.5998L104.298 88.3994L104.297 88.3998L105.897 89.5998ZM106.456 89.0995L107.87 90.5137L107.877 90.5069L107.883 90.5001L106.456 89.0995ZM107.433 88.2324L108.512 89.9164L108.52 89.9112L107.433 88.2324ZM108.37 87.8018L107.622 85.9468L107.616 85.9495L107.609 85.9522L108.37 87.8018ZM109.475 87.4236L109.823 89.3931L109.849 89.3887L109.873 89.3836L109.475 87.4236ZM110.68 87.383L110.622 89.3822L110.631 89.3824L110.639 89.3826L110.68 87.383ZM111.5 87.354L111.171 89.3268L111.171 89.3268L111.5 87.354ZM144.018 92.7708L143.689 94.7436L144.832 94.934L145.566 94.0374L144.018 92.7708ZM146.77 89.408L145.23 88.1322L145.222 88.1414L146.77 89.408ZM147.253 89.0182L148.639 90.4606L149.688 89.4526L149.052 88.144L147.253 89.0182ZM155.457 97.1754L156.318 95.3701L154.903 94.6955L153.91 95.9077L155.457 97.1754ZM153.001 100.172L151.454 98.904L150.562 99.9932L151.286 101.201L153.001 100.172ZM164.585 119.477L162.871 120.506L164.012 122.407L165.786 121.076L164.585 119.477ZM182.697 105.891L183.898 107.491L183.902 107.488L182.697 105.891ZM190.837 107.055L189.237 108.255L189.238 108.256L190.837 107.055ZM188.473 113.6L165.2 131.054L167.6 134.254L190.873 116.8L188.473 113.6ZM165.2 131.054C165.286 130.99 165.359 130.949 165.402 130.926C165.439 130.907 165.466 130.896 165.442 130.906C165.436 130.909 165.412 130.92 165.39 130.929C165.366 130.94 165.332 130.956 165.292 130.976C165.213 131.015 165.098 131.076 164.97 131.164L167.237 134.459C167.156 134.515 167.09 134.549 167.06 134.563C167.039 134.574 167.019 134.583 167.062 134.563C167.089 134.552 167.166 134.518 167.253 134.472C167.346 134.424 167.468 134.353 167.6 134.254L165.2 131.054ZM165.054 131.109C164.882 131.215 164.754 131.326 164.672 131.405C164.63 131.444 164.597 131.479 164.574 131.503C164.553 131.526 164.534 131.547 164.529 131.552C164.507 131.576 164.537 131.542 164.578 131.502C164.626 131.456 164.709 131.384 164.824 131.31L166.988 134.674C167.144 134.573 167.262 134.471 167.343 134.393C167.383 134.355 167.416 134.321 167.439 134.297C167.46 134.274 167.479 134.253 167.485 134.246C167.495 134.236 167.491 134.24 167.485 134.247C167.477 134.255 167.459 134.274 167.433 134.299C167.382 134.348 167.288 134.431 167.153 134.514L165.054 131.109ZM164.889 131.269C164.9 131.263 164.885 131.274 164.791 131.31C164.74 131.33 164.695 131.346 164.613 131.376C164.541 131.403 164.447 131.439 164.345 131.481L165.872 135.178C165.994 135.127 165.991 135.135 166.232 135.041C166.406 134.974 166.656 134.871 166.923 134.714L164.889 131.269ZM164.336 131.484C164.256 131.518 164.185 131.55 164.131 131.576C164.103 131.589 164.077 131.601 164.057 131.611C164.034 131.621 164.017 131.629 164.001 131.637C163.933 131.669 163.939 131.663 163.971 131.653L165.2 135.459C165.412 135.391 165.589 135.31 165.692 135.262C165.827 135.199 165.84 135.191 165.882 135.174L164.336 131.484ZM164.015 131.639C163.611 131.76 163.241 131.818 162.915 131.818V135.818C163.707 135.818 164.466 135.678 165.156 135.473L164.015 131.639ZM162.915 131.818C162.438 131.818 161.921 131.696 161.368 131.447L159.727 135.095C160.675 135.521 161.752 135.818 162.915 135.818V131.818ZM161.347 131.438C161.283 131.41 161.228 131.389 161.188 131.373C161.168 131.366 161.15 131.359 161.137 131.354C161.12 131.348 161.116 131.346 161.106 131.343C161.075 131.331 161.114 131.344 161.168 131.372L159.379 134.95C159.527 135.023 159.656 135.072 159.715 135.093C159.757 135.109 159.755 135.108 159.769 135.113C159.774 135.115 159.765 135.112 159.748 135.105L161.347 131.438ZM161.174 131.375C160.764 131.168 160.364 130.841 159.983 130.375L156.887 132.909C157.554 133.723 158.376 134.444 159.374 134.947L161.174 131.375ZM160.051 130.464C159.9 130.257 159.741 130.116 159.631 130.029C159.577 129.987 159.53 129.954 159.501 129.934C159.486 129.924 159.473 129.915 159.465 129.91C159.461 129.907 159.457 129.905 159.455 129.903C159.452 129.901 159.451 129.901 159.45 129.9C159.444 129.896 159.46 129.906 159.48 129.921C159.503 129.937 159.541 129.964 159.586 130.002C159.68 130.081 159.809 130.206 159.928 130.386L156.594 132.595C156.736 132.81 156.892 132.964 157.016 133.068C157.076 133.118 157.13 133.157 157.168 133.184C157.204 133.21 157.236 133.231 157.246 133.238C157.264 133.25 157.252 133.242 157.242 133.235C157.229 133.226 157.198 133.204 157.159 133.174C157.078 133.11 156.947 132.995 156.819 132.82L160.051 130.464ZM159.822 130.241C159.922 130.365 159.986 130.48 160.026 130.56C160.045 130.599 160.059 130.631 160.067 130.65C160.074 130.668 160.079 130.681 160.078 130.677C160.077 130.676 160.077 130.675 160.076 130.673C160.076 130.672 160.074 130.669 160.073 130.665C160.071 130.659 160.067 130.649 160.062 130.637C160.053 130.613 160.037 130.575 160.017 130.53C159.976 130.44 159.908 130.303 159.801 130.151L156.534 132.458C156.447 132.336 156.395 132.229 156.368 132.17C156.355 132.14 156.346 132.118 156.343 132.11C156.342 132.108 156.339 132.098 156.346 132.118C156.354 132.138 156.388 132.227 156.439 132.331C156.494 132.442 156.576 132.587 156.699 132.74L159.822 130.241ZM159.818 130.176C159.75 130.076 159.686 129.996 159.639 129.94C159.598 129.892 159.552 129.84 159.544 129.831C159.527 129.811 159.536 129.82 159.551 129.84C159.568 129.862 159.601 129.905 159.637 129.966L156.209 132.027C156.346 132.255 156.496 132.422 156.542 132.474C156.561 132.496 156.561 132.496 156.572 132.508C156.578 132.515 156.578 132.515 156.576 132.512C156.571 132.507 156.547 132.478 156.517 132.434L159.818 130.176ZM159.638 129.967L146.885 108.714L143.455 110.772L156.208 132.026L159.638 129.967ZM143.622 108.477L131.328 123.511L134.424 126.043L146.718 111.009L143.622 108.477ZM131.314 126.026L154.261 154.71L157.385 152.211L134.438 123.527L131.314 126.026ZM154.275 154.727C154.192 154.626 154.14 154.536 154.112 154.481C154.086 154.431 154.074 154.398 154.084 154.423C154.086 154.429 154.089 154.434 154.093 154.445C154.096 154.454 154.102 154.467 154.107 154.48C154.119 154.508 154.135 154.549 154.156 154.595C154.197 154.687 154.263 154.825 154.363 154.977L157.714 152.793C157.77 152.879 157.801 152.946 157.809 152.966C157.811 152.971 157.82 152.991 157.79 152.918C157.756 152.834 157.631 152.512 157.371 152.194L154.275 154.727ZM154.388 155.015C154.502 155.182 154.603 155.381 154.731 155.69L158.428 154.163C158.253 153.74 158.028 153.252 157.689 152.755L154.388 155.015ZM154.723 155.67C154.857 156.005 154.922 156.194 154.96 156.372L158.874 155.552C158.761 155.009 158.582 154.547 158.436 154.183L154.723 155.67ZM154.955 156.349C154.987 156.51 154.999 156.706 155.004 157.075L159.004 157.014C158.998 156.638 158.987 156.124 158.879 155.576L154.955 156.349ZM155.004 157.044C155.004 157.386 154.988 157.618 154.948 157.826L158.874 158.59C158.985 158.018 159.004 157.494 159.004 157.044H155.004ZM154.956 157.788C154.916 157.971 154.903 158.129 154.899 158.239C154.896 158.294 154.895 158.342 154.895 158.376C154.895 158.405 154.895 158.442 154.895 158.45C154.895 158.486 154.894 158.455 154.898 158.408C154.903 158.353 154.914 158.258 154.947 158.141L158.793 159.24C158.902 158.861 158.895 158.526 158.895 158.448C158.895 158.382 158.895 158.401 158.894 158.419C158.893 158.449 158.888 158.526 158.866 158.628L154.956 157.788ZM155.013 157.948L143.377 187.039L147.091 188.525L158.727 159.434L155.013 157.948ZM143.312 187.23C142.831 188.905 141.304 190 139.643 190V194C143.043 194 146.171 191.767 147.156 188.334L143.312 187.23ZM139.643 190C139.291 190 138.947 189.954 138.606 189.854L137.48 193.692C138.209 193.906 138.935 194 139.643 194V190ZM138.593 189.85C136.562 189.269 135.387 187.155 135.964 185.129L132.116 184.035C130.935 188.187 133.344 192.508 137.492 193.696L138.593 189.85ZM135.897 185.325L146.492 158.846L142.778 157.36L132.183 183.839L135.897 185.325ZM146.196 156.854L126.898 132.737L123.774 135.236L143.073 159.353L146.196 156.854ZM123.788 132.72L101.871 159.507L104.967 162.04L126.884 135.253L123.788 132.72ZM101.835 159.553C101.949 159.405 102.064 159.304 102.143 159.243C102.182 159.213 102.213 159.191 102.232 159.178C102.249 159.167 102.261 159.16 102.256 159.163C102.255 159.163 102.254 159.164 102.251 159.166C102.249 159.167 102.246 159.169 102.242 159.171C102.235 159.176 102.224 159.183 102.211 159.191C102.186 159.207 102.147 159.232 102.101 159.265C102.009 159.33 101.872 159.436 101.731 159.589L104.676 162.296C104.567 162.414 104.466 162.491 104.411 162.53C104.384 162.549 104.363 162.562 104.358 162.566C104.357 162.567 104.349 162.572 104.371 162.558C104.394 162.544 104.49 162.485 104.596 162.402C104.711 162.312 104.86 162.18 105.003 161.995L101.835 159.553ZM101.715 159.606C101.504 159.842 101.213 160.063 100.772 160.319L102.784 163.776C103.402 163.417 104.089 162.95 104.692 162.279L101.715 159.606ZM100.773 160.319C100.639 160.396 100.531 160.474 100.456 160.529C100.418 160.557 100.385 160.583 100.36 160.602C100.324 160.63 100.326 160.629 100.302 160.647C100.272 160.671 100.279 160.664 100.302 160.649C100.328 160.632 100.387 160.595 100.472 160.558L102.071 164.224C102.412 164.076 102.663 163.878 102.752 163.809C102.821 163.756 102.822 163.755 102.842 163.74C102.85 163.734 102.826 163.752 102.783 163.777L100.773 160.319ZM100.466 160.56C99.9514 160.787 99.4339 160.909 98.9095 160.909V164.909C100.073 164.909 101.137 164.635 102.077 164.222L100.466 160.56ZM98.9095 160.909H69.8182V164.909H98.9095V160.909ZM69.8182 160.909C67.7111 160.909 66 159.198 66 157.091H62C62 161.407 65.502 164.909 69.8182 164.909V160.909ZM66 157.091C66 154.984 67.7111 153.273 69.8182 153.273V149.273C65.502 149.273 62 152.775 62 157.091H66ZM69.8182 153.273H96.1515V149.273H69.8182V153.273ZM97.6994 152.539L137.071 104.417L133.975 101.884L94.6036 150.006L97.6994 152.539ZM135.852 101.178L113.411 97.4364L112.754 101.382L135.194 105.123L135.852 101.178ZM111.483 98.209L96.1459 118.654L99.3457 121.055L114.682 100.609L111.483 98.209ZM96.1443 118.656C95.3988 119.653 94.259 120.182 93.0856 120.182V124.182C95.4611 124.182 97.8121 123.105 99.3473 121.052L96.1443 118.656ZM93.0856 120.182C92.2867 120.182 91.4914 119.935 90.8106 119.421L88.402 122.615C89.8042 123.672 91.4527 124.182 93.0856 124.182V120.182ZM90.8034 119.416C89.1148 118.154 88.7729 115.763 90.0418 114.074L86.8435 111.671C84.2494 115.125 84.9427 120.03 88.4092 122.62L90.8034 119.416ZM90.0427 114.073L107.497 90.7998L104.297 88.3998L86.8427 111.673L90.0427 114.073ZM107.497 90.8001C107.411 90.9152 107.332 90.9677 107.401 90.9131C107.419 90.8992 107.434 90.8879 107.465 90.8639C107.491 90.8433 107.528 90.815 107.567 90.7835C107.646 90.7204 107.754 90.6294 107.87 90.5137L105.042 87.6853C105.067 87.6597 105.08 87.6502 105.062 87.6652C105.019 87.6994 105.029 87.6901 104.934 87.7645C104.809 87.8625 104.541 88.075 104.298 88.3994L107.497 90.8001ZM107.883 90.5001C108.244 90.1327 108.371 90.007 108.512 89.9164L106.354 86.5485C105.751 86.9352 105.284 87.4378 105.028 87.6989L107.883 90.5001ZM108.52 89.9112C108.538 89.9001 108.577 89.8769 108.677 89.8341C108.729 89.8121 108.786 89.789 108.865 89.758C108.936 89.7297 109.034 89.6913 109.131 89.6513L107.609 85.9522C107.445 86.0198 106.847 86.2292 106.346 86.5536L108.52 89.9112ZM109.118 89.6567C109.611 89.4577 109.693 89.4161 109.823 89.3931L109.127 85.4541C108.467 85.5709 107.85 85.8549 107.622 85.9468L109.118 89.6567ZM109.873 89.3836C109.989 89.3601 110.085 89.3668 110.622 89.3822L110.737 85.3838C110.461 85.3759 109.765 85.3241 109.077 85.4637L109.873 89.3836ZM110.639 89.3826C110.81 89.3861 110.958 89.3759 111.064 89.3664C111.118 89.3616 111.167 89.3564 111.203 89.3525C111.246 89.3479 111.267 89.3455 111.293 89.3429C111.396 89.3324 111.309 89.3497 111.171 89.3268L111.829 85.3813C111.412 85.3117 111.055 85.3464 110.887 85.3635C110.762 85.3762 110.768 85.3769 110.708 85.3823C110.679 85.3849 110.689 85.3828 110.72 85.3834L110.639 89.3826ZM111.171 89.3268L143.689 94.7436L144.347 90.798L111.829 85.3812L111.171 89.3268ZM145.566 94.0374L148.318 90.6747L145.222 88.1414L142.47 91.5042L145.566 94.0374ZM148.31 90.6838C148.192 90.8263 148.078 90.8954 148.143 90.8508C148.149 90.8462 148.157 90.8412 148.167 90.834C148.177 90.8275 148.19 90.8183 148.204 90.8091C148.231 90.7905 148.268 90.7643 148.31 90.7338C148.394 90.6728 148.512 90.5818 148.639 90.4606L145.868 87.5759C145.918 87.5274 145.956 87.5004 145.956 87.4998C145.957 87.4995 145.953 87.5025 145.938 87.5129C145.93 87.5181 145.922 87.5235 145.91 87.5314C145.9 87.5386 145.886 87.548 145.872 87.558C145.768 87.6297 145.488 87.821 145.23 88.1322L148.31 90.6838ZM149.052 88.144C148.05 86.0818 147.455 83.8368 147.455 81.4546H143.455C143.455 84.5184 144.222 87.358 145.454 89.8925L149.052 88.144ZM147.455 81.4546C147.455 72.9358 154.391 66 162.91 66V62C152.182 62 143.455 70.7267 143.455 81.4546H147.455ZM162.91 66C171.434 66 178.364 72.9354 178.364 81.4546H182.364C182.364 70.7271 173.644 62 162.91 62V66ZM178.364 81.4546C178.364 89.9738 171.434 96.9092 162.91 96.9092V100.909C173.644 100.909 182.364 92.182 182.364 81.4546H178.364ZM162.91 96.9092C160.565 96.9092 158.35 96.3392 156.318 95.3701L154.596 98.9806C157.102 100.176 159.902 100.909 162.91 100.909V96.9092ZM153.91 95.9077L151.454 98.904L154.548 101.439L157.004 98.443L153.91 95.9077ZM151.286 101.201L162.871 120.506L166.3 118.447L154.716 99.1426L151.286 101.201ZM165.786 121.076L183.898 107.491L181.497 104.291L163.385 117.877L165.786 121.076ZM183.902 107.488C185.572 106.228 187.971 106.567 189.237 108.255L192.437 105.854C189.852 102.41 184.943 101.691 181.493 104.294L183.902 107.488ZM189.238 108.256C190.504 109.942 190.161 112.335 188.474 113.599L190.872 116.8C194.328 114.212 195.032 109.309 192.436 105.853L189.238 108.256Z" fill="#9ACA75" mask="url(#path-2-outside-1)"/>
</svg>
