<svg width="256" height="256" viewBox="0 0 256 256" fill="none" xmlns="http://www.w3.org/2000/svg">
<path d="M238 128C238 67.2708 188.729 18 128 18C67.2708 18 18 67.2708 18 128C18 188.729 67.2708 238 128 238C188.729 238 238 188.729 238 128Z" stroke="#EC5750" stroke-width="30" stroke-miterlimit="10"/>
<path d="M192 127.665L166.5 109.333V145.998L192 127.665ZM192 127.665H111.769M141.331 109.333V100.166C141.331 97.7352 140.365 95.4037 138.646 93.6847C136.927 91.9657 134.595 91 132.164 91H88.1663C85.7352 91 83.4037 91.9657 81.6847 93.6847C79.9657 95.4037 79 97.7352 79 100.166V155.164C79 157.595 79.9657 159.926 81.6847 161.645C83.4037 163.364 85.7352 164.33 88.1663 164.33H132.164C134.595 164.33 136.927 163.364 138.646 161.645C140.365 159.926 141.331 157.595 141.331 155.164V145.998V109.333Z" stroke="#EC5750" stroke-width="14" stroke-linecap="round" stroke-linejoin="round"/>
</svg>