<svg width="256" height="256" viewBox="0 0 256 256" fill="none" xmlns="http://www.w3.org/2000/svg">
<path d="M238 128C238 67.2708 188.729 18 128 18C67.2708 18 18 67.2708 18 128C18 188.729 67.2708 238 128 238C188.729 238 238 188.729 238 128Z" stroke="#367587" stroke-width="30" stroke-miterlimit="10"/>
<path d="M112.67 155.923H96.4615C89.1783 155.923 82.1933 153.03 77.0433 147.88C71.8933 142.73 69 135.745 69 128.462C69 121.178 71.8933 114.193 77.0433 109.043C82.1933 103.893 89.1783 101 96.4615 101H112.312M144.688 101H160.538C167.822 101 174.807 103.893 179.957 109.043C185.107 114.193 188 121.178 188 128.462C188 135.745 185.107 142.73 179.957 147.88C174.807 153.03 167.822 155.923 160.538 155.923H144.33M103.633 128.462H153.939" stroke="#367587" stroke-width="20" stroke-linecap="round" stroke-linejoin="round"/>
</svg>