<svg width="70" height="71" viewBox="0 0 70 71" fill="none" xmlns="http://www.w3.org/2000/svg">
<path d="M69.9447 35.9952C69.9752 16.7024 54.3547 1.03234 35.0553 0.995197C15.7559 0.958054 0.0858281 16.5679 0.0552915 35.8607C0.0247548 55.1535 15.6453 70.8236 34.9447 70.8607C54.2441 70.8979 69.9142 55.288 69.9447 35.9952Z" fill="#3574B9"/>
<path d="M29.339 57.7465C29.339 58.5348 28.8254 58.8107 28.0551 58.8107C23.39 57.2663 19.3181 54.2098 16.4309 50.085C13.5438 45.9603 11.9916 40.9821 12 35.8738C12.0085 30.7654 13.577 25.7929 16.4777 21.6785C19.3785 17.5641 23.4605 14.5222 28.1306 12.9946C28.8859 12.7345 29.4145 13.2627 29.407 14.0667V15.9665C29.4127 16.24 29.345 16.5097 29.2115 16.7451C29.078 16.9806 28.8841 17.1723 28.6517 17.2988C24.9783 18.6789 21.8012 21.2067 19.5528 24.5382C17.3044 27.8697 16.0938 31.8433 16.0855 35.9184C16.0772 39.9935 17.2718 43.9724 19.5067 47.3138C21.7416 50.6552 24.9083 53.1969 28.5762 54.5933C28.8092 54.719 29.0036 54.9106 29.1371 55.1462C29.2707 55.3818 29.338 55.6518 29.3314 55.9255L29.339 57.7465Z" fill="white"/>
<path d="M37.0121 51.1247C37.0034 51.4079 36.8943 51.6775 36.7059 51.8814C36.5175 52.0853 36.2633 52.209 35.9925 52.2284H33.9459C33.6801 52.2097 33.4299 52.0905 33.2422 51.8932C33.0545 51.6958 32.9422 51.4338 32.9263 51.1563V48.0031C28.8329 47.4591 26.7938 45.0627 26.031 41.5942C26.031 41.066 26.2953 40.53 26.7862 40.53H29.0897C29.5957 40.53 29.8449 40.798 30.1093 41.3183C30.6153 43.1866 31.6197 44.7868 34.9579 44.7947C37.5106 44.7947 39.3005 43.4703 39.308 41.3419C39.3156 39.2135 38.2885 38.4094 34.7162 37.8655C29.3465 37.0772 26.7938 35.4533 26.8013 30.9285C26.8013 27.4678 29.3691 24.8034 32.949 24.2831V21.0195C32.9651 20.7428 33.0777 20.4818 33.2655 20.2857C33.4533 20.0897 33.7034 19.9721 33.9685 19.9553H36.0152C36.2803 19.9721 36.5304 20.0897 36.7183 20.2857C36.9061 20.4818 37.0187 20.7428 37.0348 21.0195V24.22C40.101 24.7561 42.1402 26.6243 42.6462 29.5568C42.6462 30.085 42.3894 30.621 41.8909 30.621H39.8593C39.3458 30.621 39.1041 30.353 38.8398 29.8327C38.3338 27.9645 37.0574 27.1604 34.754 27.1604C32.2013 27.1604 30.9174 28.4847 30.9174 30.3136C30.9174 32.1425 31.6726 33.2461 35.5092 33.79C40.8714 34.5783 43.424 36.2022 43.4165 40.7271C43.4165 44.1877 40.8563 47.1123 37.0197 47.9085L37.0121 51.1247Z" fill="white"/>
<path d="M40.5767 57.7938C40.5767 58.5899 41.0978 59.126 41.8531 58.858C46.5227 57.3281 50.6046 54.2865 53.5076 50.1736C56.4106 46.0607 57.984 41.09 58 35.9815C58.0151 25.3315 51.1349 16.2582 41.9437 13.0419C41.1734 13.0419 40.6598 13.3178 40.6598 14.1061V15.9744C40.6541 16.2479 40.7218 16.5176 40.8553 16.753C40.9887 16.9884 41.1826 17.1802 41.415 17.3066C45.0826 18.7038 48.2488 21.2462 50.4831 24.5881C52.7173 27.93 53.911 31.9092 53.902 35.9843C53.8929 40.0594 52.6814 44.0327 50.4323 47.3637C48.1832 50.6948 45.0057 53.2218 41.332 54.6011C41.0996 54.7255 40.9055 54.9157 40.7719 55.15C40.6383 55.3842 40.5707 55.653 40.5767 55.9255V57.7938Z" fill="white"/>
</svg>
